<?xml version="1.0" encoding="utf-8"?>
<!-- Generator: Adobe Illustrator 16.0.0, SVG Export Plug-In . SVG Version: 6.00 Build 0)  -->
<!DOCTYPE svg PUBLIC "-//W3C//DTD SVG 1.1//EN" "http://www.w3.org/Graphics/SVG/1.1/DTD/svg11.dtd">
<svg version="1.1" id="图层_1" xmlns="http://www.w3.org/2000/svg" xmlns:xlink="http://www.w3.org/1999/xlink" x="0px" y="0px"
	 width="231.914px" height="24.132px" viewBox="0 0 231.914 24.132" enable-background="new 0 0 231.914 24.132"
	 xml:space="preserve">
<g>
	<defs>
		<rect id="SVGID_1_" width="231.914" height="24.132"/>
	</defs>
	<clipPath id="SVGID_2_">
		<use xlink:href="#SVGID_1_"  overflow="visible"/>
	</clipPath>
	<path clip-path="url(#SVGID_2_)" fill="#005B98" d="M0.724,14.191C0.32,14.191,0,13.866,0,13.467s0.32-0.725,0.723-0.725
		c2.304,0,2.304-1.113,2.304-1.529c0-0.421,0-1.534-2.304-1.534C0.32,9.68,0,9.355,0,8.958c0-0.401,0.32-0.726,0.723-0.726
		c2.383,0,3.75,1.087,3.75,2.982C4.474,13.102,3.106,14.191,0.724,14.191"/>
	<path clip-path="url(#SVGID_2_)" fill="#0068A3" d="M0.724,18.287C0.32,18.287,0,17.964,0,17.564c0-0.4,0.32-0.722,0.723-0.722
		c1.924,0,6.406-0.548,6.406-5.629c0-5.082-4.482-5.637-6.406-5.637C0.32,5.577,0,5.254,0,4.855c0-0.398,0.32-0.723,0.723-0.723
		c3.796,0,7.853,1.858,7.853,7.081C8.576,16.43,4.52,18.287,0.724,18.287"/>
	<path clip-path="url(#SVGID_2_)" fill="#0075AE" d="M0.724,22.392C0.32,22.392,0,22.064,0,21.666c0-0.396,0.32-0.725,0.723-0.725
		c4.848,0,10.504-2.547,10.504-9.727c0-7.212-5.656-9.767-10.504-9.767C0.32,1.447,0,1.123,0,0.723c0-0.402,0.32-0.722,0.723-0.722
		c5.948,0,11.958,3.465,11.958,11.213C12.682,18.936,6.671,22.392,0.724,22.392"/>
	<path clip-path="url(#SVGID_2_)" fill="#0080B8" d="M11.81,22.392c-0.192,0-0.379-0.076-0.525-0.226
		c-0.274-0.287-0.262-0.746,0.025-1.023c2.632-2.517,4.018-5.949,4.018-9.928c0-4.004-1.401-7.45-4.055-9.97
		c-0.289-0.269-0.298-0.728-0.025-1.017c0.275-0.293,0.733-0.303,1.022-0.028c2.907,2.761,4.507,6.669,4.507,11.015
		c0,4.324-1.588,8.219-4.466,10.978C12.169,22.322,11.992,22.392,11.81,22.392"/>
	<path clip-path="url(#SVGID_2_)" fill="#009BD8" d="M30.706,22.392c-0.398,0-0.723-0.327-0.723-0.726V0.723
		c0-0.402,0.325-0.722,0.723-0.722c0.401,0,0.725,0.32,0.725,0.722v20.943C31.431,22.064,31.107,22.392,30.706,22.392"/>
	<path clip-path="url(#SVGID_2_)" fill="#00A5DB" d="M34.383,22.392c-0.398,0-0.724-0.327-0.724-0.726V0.723
		c0-0.402,0.326-0.722,0.724-0.722c0.4,0,0.721,0.32,0.721,0.722v20.943C35.104,22.064,34.783,22.392,34.383,22.392"/>
	<path clip-path="url(#SVGID_2_)" fill="#0093D6" d="M26.103,22.392c-0.054,0-0.107-0.005-0.16-0.02
		c-0.391-0.085-0.637-0.471-0.548-0.862c0.007-0.039,0.922-4.221,0.922-10.295c0-6.09-0.915-10.292-0.922-10.335
		c-0.086-0.39,0.157-0.774,0.55-0.86c0.391-0.09,0.776,0.159,0.862,0.55c0.04,0.174,0.955,4.386,0.955,10.645
		c0,6.249-0.915,10.435-0.955,10.611C26.73,22.163,26.432,22.392,26.103,22.392"/>
	<path clip-path="url(#SVGID_2_)" fill="#008CD5" d="M21.263,22.392c-0.095,0-0.192-0.021-0.285-0.06
		c-0.366-0.157-0.536-0.585-0.38-0.95c0.022-0.048,2.052-4.832,2.052-10.167c0-5.355-2.031-10.159-2.052-10.206
		c-0.156-0.369,0.014-0.791,0.38-0.948c0.367-0.158,0.795,0.011,0.951,0.377c0.089,0.21,2.169,5.125,2.169,10.777
		c0,5.644-2.08,10.533-2.169,10.741C21.811,22.227,21.543,22.392,21.263,22.392"/>
	<path clip-path="url(#SVGID_2_)" fill="#0080C2" d="M16.67,22.392c-0.15,0-0.298-0.046-0.428-0.14
		c-0.32-0.234-0.39-0.688-0.156-1.011c0.028-0.041,2.898-4.04,2.898-10.027c0-6.021-2.871-10.025-2.9-10.066
		c-0.234-0.325-0.162-0.776,0.161-1.01c0.32-0.232,0.774-0.163,1.01,0.163c0.13,0.172,3.177,4.429,3.177,10.913
		c0,6.481-3.049,10.702-3.178,10.882C17.112,22.287,16.892,22.392,16.67,22.392"/>
	<path clip-path="url(#SVGID_2_)" fill="#A1A1A2" d="M50.327,2.693h-5.284v16.573h5.284c2.547,0,7.966-0.799,7.966-8.278
		C58.292,3.516,52.872,2.693,50.327,2.693 M49.939,17.225h-2.616V4.727h2.616c2.025,0,5.871,0.449,5.871,6.261
		C55.811,16.798,51.964,17.225,49.939,17.225"/>
	<path clip-path="url(#SVGID_2_)" fill="#A1A1A2" d="M78.647,6.668c-3.394,0-5.495,2.179-5.495,6.568
		c0,4.744,2.905,6.247,5.764,6.247c1.644,0,3.113-0.257,4.403-0.799V16.63c-1.18,0.621-2.609,0.934-4.282,0.934
		c-2.049,0-3.221-1.063-3.494-3.191h8.494c0.051-0.538,0.073-1.107,0.073-1.7C84.11,10.393,83.104,6.668,78.647,6.668
		 M75.508,12.335c0.198-3.113,2.147-3.629,3.19-3.629c2.935,0,3.148,3.213,3.177,3.629H75.508z"/>
	<path clip-path="url(#SVGID_2_)" fill="#A1A1A2" d="M65.663,6.668c-3.395,0-5.496,2.179-5.496,6.568
		c0,4.744,2.903,6.247,5.764,6.247c1.639,0,3.109-0.257,4.406-0.799V16.63c-1.182,0.621-2.609,0.934-4.283,0.934
		c-2.055,0-3.223-1.063-3.5-3.191h8.492c0.052-0.538,0.077-1.107,0.077-1.7C71.123,10.393,70.119,6.668,65.663,6.668 M62.521,12.335
		c0.2-3.113,2.147-3.629,3.19-3.629c2.941,0,3.146,3.213,3.179,3.629H62.521z"/>
	<path clip-path="url(#SVGID_2_)" fill="#A1A1A2" d="M91.252,6.619c-1.612,0-4.943,0.538-4.943,4.005V23.98h2.283v-4.895
		c0.839,0.25,1.715,0.376,2.631,0.376c0.739,0,5.716,0.167,5.716-6.266C96.939,6.408,91.852,6.619,91.252,6.619 M91.224,17.421
		c-0.894,0-1.77-0.17-2.631-0.5v-6.402c0-1.031,0.746-1.861,2.66-1.861c0.823,0,3.401-0.041,3.401,4.539
		C94.653,17.379,92.076,17.421,91.224,17.421"/>
	<rect x="98.911" y="2.692" clip-path="url(#SVGID_2_)" fill="#A1A1A2" width="2.283" height="16.573"/>
	<path clip-path="url(#SVGID_2_)" fill="#A1A1A2" d="M111.476,6.875v10.021c-0.922,0.256-1.827,0.382-2.707,0.382
		c-1.14,0-2.86-0.126-2.86-2.354V6.875h-2.279v7.915c0,3.401,2.234,4.694,4.973,4.694c0.975,0,1.929-0.143,2.873-0.398v4.895h2.281
		V6.875H111.476z"/>
	<rect x="204.557" y="2.693" clip-path="url(#SVGID_2_)" fill="#A1A1A2" width="2.427" height="2.413"/>
	<path clip-path="url(#SVGID_2_)" fill="#A1A1A2" d="M176.272,6.818c-3.396,0-5.495,2.182-5.495,6.563
		c0,4.744,2.903,6.241,5.762,6.241c1.646,0,3.111-0.254,4.401-0.79v-2.05c-1.179,0.618-2.607,0.93-4.279,0.93
		c-2.055,0-3.221-1.058-3.495-3.191h8.494c0.053-0.539,0.074-1.114,0.074-1.704C181.734,10.545,180.727,6.818,176.272,6.818
		 M173.129,12.481c0.2-3.115,2.151-3.624,3.194-3.624c2.933,0,3.148,3.21,3.175,3.624H173.129z"/>
	<path clip-path="url(#SVGID_2_)" fill="#A1A1A2" d="M231.914,12.817c0-2.272-1.013-5.999-5.462-5.999
		c-3.393,0-5.494,2.182-5.494,6.563c0,4.744,2.907,6.241,5.761,6.241c1.642,0,3.112-0.254,4.404-0.79v-2.05
		c-1.184,0.618-2.606,0.93-4.281,0.93c-2.053,0-3.222-1.058-3.498-3.191h8.499C231.893,13.982,231.914,13.407,231.914,12.817
		 M223.308,12.481c0.201-3.115,2.15-3.624,3.194-3.624c2.934,0,3.148,3.21,3.175,3.624H223.308z"/>
	<path clip-path="url(#SVGID_2_)" fill="#A1A1A2" d="M155.594,6.77c-1.611,0-4.943,0.539-4.943,3.998v13.364h2.283v-4.89
		c0.841,0.244,1.718,0.365,2.634,0.365c0.734,0,5.715,0.17,5.715-6.263C161.282,6.557,156.192,6.77,155.594,6.77 M155.567,17.566
		c-0.901,0-1.775-0.165-2.634-0.503v-6.403c0-1.029,0.75-1.854,2.66-1.854c0.823,0,3.405-0.04,3.405,4.538
		C158.999,17.527,156.417,17.566,155.567,17.566"/>
	<rect x="123.608" y="2.845" clip-path="url(#SVGID_2_)" fill="#A1A1A2" width="2.281" height="16.567"/>
	<path clip-path="url(#SVGID_2_)" fill="#A1A1A2" d="M142.763,6.748c-1.472,0-2.99,0.321-4.551,0.949
		c-0.869-0.628-1.971-0.949-3.313-0.949c-1.783,0-3.501,0.42-5.159,1.265v11.398h2.281V9.326c0.921-0.248,1.827-0.374,2.706-0.374
		c1.143,0,1.906,0.213,2.29,0.627c0.382,0.423,0.576,0.995,0.576,1.729v8.103h2.281v-7.972c0.007-0.678-0.094-1.296-0.295-1.842
		c1.122-0.463,2.234-0.694,3.322-0.694c1.015,0,1.696,0.218,2.045,0.654c0.344,0.442,0.52,1.017,0.52,1.728v8.126h2.286v-8.004
		c0-1.474-0.445-2.616-1.324-3.431C145.552,7.153,144.33,6.748,142.763,6.748"/>
	<path clip-path="url(#SVGID_2_)" fill="#A1A1A2" d="M163.659,19.411h2.281V9.425c1.282-0.333,2.532-0.502,3.766-0.522V6.87
		c-1.96,0-3.972,0.405-6.047,1.206V19.411z"/>
	<path clip-path="url(#SVGID_2_)" fill="#A1A1A2" d="M185.742,10.218c0-0.812,0.816-1.361,2.452-1.361
		c0.953,0,1.967,0.245,3.043,0.731V7.626c-0.788-0.444-1.999-0.808-3.315-0.808c-1.51,0-4.461,0.635-4.461,3.69
		c0,4.182,6.318,2.869,6.318,5.542c0,1.255-1.641,1.52-2.436,1.52c-1.052,0-2.39-0.298-3.481-0.907v2.07
		c0.82,0.519,2.256,0.875,3.589,0.875c3.613,0,4.608-2.155,4.608-3.671C192.06,11.246,185.742,12.501,185.742,10.218"/>
	<path clip-path="url(#SVGID_2_)" fill="#A1A1A2" d="M195.913,10.218c0-0.812,0.814-1.361,2.457-1.361
		c0.951,0,1.965,0.245,3.038,0.731V7.626c-0.783-0.444-2-0.808-3.32-0.808c-1.505,0-4.455,0.635-4.455,3.69
		c0,4.182,6.323,2.869,6.323,5.542c0,1.255-1.648,1.52-2.444,1.52c-1.05,0-2.384-0.298-3.479-0.907v2.07
		c0.82,0.519,2.265,0.875,3.588,0.875c3.614,0,4.616-2.155,4.616-3.671C202.236,11.246,195.913,12.501,195.913,10.218"/>
	<path clip-path="url(#SVGID_2_)" fill="#A1A1A2" d="M214.66,16.49l-3.481-9.478h-2.434l4.23,11.055
		c0.282,0.737,0.674,1.344,1.685,1.344h1.159l4.779-12.399h-2.436L214.66,16.49z"/>
	<rect x="204.632" y="7.013" clip-path="url(#SVGID_2_)" fill="#A1A1A2" width="2.279" height="12.399"/>
</g>
</svg>
